<mxfile host="app.diagrams.net" modified="2024-03-28T14:12:21.001Z" agent="Mozilla/5.0 (Windows NT 10.0; Win64; x64) AppleWebKit/537.36 (KHTML, like Gecko) Chrome/121.0.0.0 Safari/537.36" version="24.2.0" etag="vV-ievY2F6jK3CBfR_Br" type="github">
  <diagram name="Page-1" id="N5K77brUReWCodLKkiJd">
    <mxGraphModel>
      <root>
        <mxCell id="0" />
        <mxCell id="1" parent="0" />
      </root>
    </mxGraphModel>
  </diagram>
</mxfile>
